<svg aria-hidden="true" style="position:absolute;width:0;height:0;overflow:hidden" xmlns="http://www.w3.org/2000/svg">
<defs>
<symbol id="icon-burger" viewBox="0 0 32 32">
<path style="fill: var(--color1)" d="M5.333 24h21.333c0.733 0 1.333-0.6 1.333-1.333s-0.6-1.333-1.333-1.333h-21.333c-0.733 0-1.333 0.6-1.333 1.333s0.6 1.333 1.333 1.333zM5.333 17.333h21.333c0.733 0 1.333-0.6 1.333-1.333s-0.6-1.333-1.333-1.333h-21.333c-0.733 0-1.333 0.6-1.333 1.333s0.6 1.333 1.333 1.333zM4 9.333c0 0.733 0.6 1.333 1.333 1.333h21.333c0.733 0 1.333-0.6 1.333-1.333s-0.6-1.333-1.333-1.333h-21.333c-0.733 0-1.333 0.6-1.333 1.333z"></path>
</symbol>
<symbol id="icon-arrow" viewBox="0 0 32 32">
<path fill="none" stroke-width="3.5556" stroke-miterlimit="4" stroke-linecap="round" stroke-linejoin="round" style="stroke: var(--color1)" d="M27.087 6.956l-10.507 18.677c-0.058 0.103-0.142 0.188-0.244 0.247s-0.218 0.091-0.336 0.091c-0.118 0-0.234-0.031-0.336-0.091s-0.186-0.145-0.244-0.247l-10.507-18.677c-0.067-0.12-0.095-0.257-0.081-0.394s0.070-0.265 0.16-0.369c0.090-0.104 0.21-0.177 0.343-0.21s0.273-0.024 0.401 0.025l10.023 3.896c0.155 0.060 0.327 0.060 0.483 0l10.023-3.897c0.128-0.050 0.268-0.059 0.402-0.026s0.253 0.106 0.343 0.21 0.146 0.233 0.16 0.369c0.014 0.137-0.015 0.274-0.082 0.394z"></path>
</symbol>
<symbol id="icon-right" viewBox="0 0 32 32">
<path fill="none" stroke-width="2.3529" stroke-miterlimit="4" stroke-linecap="round" stroke-linejoin="round" style="stroke: var(--color2)" d="M6.956 4.913l18.677 10.507c0.103 0.058 0.188 0.142 0.247 0.244s0.091 0.218 0.091 0.336-0.031 0.234-0.091 0.336c-0.059 0.102-0.145 0.186-0.247 0.244l-18.677 10.507c-0.12 0.067-0.257 0.095-0.394 0.081s-0.265-0.070-0.369-0.16c-0.104-0.090-0.177-0.21-0.21-0.343s-0.024-0.273 0.025-0.401l3.896-10.023c0.060-0.155 0.060-0.327 0-0.483l-3.897-10.023c-0.050-0.128-0.059-0.268-0.026-0.402s0.106-0.253 0.21-0.343c0.104-0.090 0.233-0.146 0.369-0.16s0.274 0.015 0.394 0.082z"></path>
</symbol>
<symbol id="icon-left" viewBox="0 0 32 32">
<path fill="none" stroke-width="2.3529" stroke-miterlimit="4" stroke-linecap="round" stroke-linejoin="round" style="stroke: var(--color2)" d="M25.044 27.087l-18.677-10.507c-0.103-0.058-0.188-0.142-0.247-0.244s-0.091-0.218-0.091-0.336 0.031-0.234 0.091-0.336c0.059-0.102 0.145-0.186 0.247-0.244l18.677-10.507c0.12-0.067 0.257-0.095 0.394-0.081s0.265 0.070 0.369 0.16c0.104 0.090 0.177 0.21 0.21 0.343s0.024 0.273-0.025 0.401l-3.896 10.023c-0.060 0.155-0.060 0.327 0 0.483l3.897 10.023c0.050 0.128 0.059 0.268 0.026 0.402s-0.106 0.253-0.21 0.343c-0.104 0.090-0.233 0.146-0.369 0.16s-0.274-0.015-0.394-0.082z"></path>
</symbol>
<symbol id="icon-logo-google-play" viewBox="0 0 29 32">
<path fill="#ea4335" style="fill: var(--color1, #ea4335)" d="M13.535 15.256l-13.414 14.038c0.151 0.533 0.421 1.025 0.791 1.438s0.83 0.735 1.344 0.944c0.514 0.208 1.069 0.296 1.622 0.257s1.090-0.204 1.57-0.482l15.094-8.586-7.007-7.608z"></path>
<path fill="#fbbc04" style="fill: var(--color2, #fbbc04)" d="M27.099 12.87l-6.527-3.734-7.347 6.44 7.377 7.268 6.477-3.694c0.574-0.3 1.054-0.751 1.39-1.305s0.513-1.188 0.513-1.835c0-0.647-0.177-1.282-0.513-1.835s-0.816-1.005-1.39-1.305l0.020 0z"></path>
<path fill="#4285f4" style="fill: var(--color3, #4285f4)" d="M0.12 2.656c-0.081 0.299-0.121 0.608-0.12 0.918v24.8c0.001 0.31 0.041 0.619 0.12 0.919l13.874-13.678-13.874-12.959z"></path>
<path fill="#34a853" style="fill: var(--color4, #34a853)" d="M13.635 15.974l6.937-6.839-15.074-8.626c-0.567-0.332-1.212-0.507-1.869-0.509-1.631-0.003-3.065 1.078-3.508 2.646l13.514 13.329z"></path>
</symbol>
<symbol id="icon-google" viewBox="0 0 32 32">
<path fill="none" stroke="#2abf9e" stroke-width="2.4" stroke-miterlimit="4" stroke-linecap="butt" stroke-linejoin="miter" style="stroke: var(--color1, #2abf9e)" d="M12 1.2h8c5.965 0 10.8 4.835 10.8 10.8v8c0 5.965-4.835 10.8-10.8 10.8h-8c-5.965 0-10.8-4.835-10.8-10.8v-8c0-5.965 4.835-10.8 10.8-10.8z"></path>
<path style="fill: var(--color1)" d="M24.66 14.113h-0.691v-0.036h-7.724v3.433h4.85c-0.708 1.998-2.609 3.433-4.85 3.433-2.844 0-5.149-2.306-5.149-5.149s2.306-5.149 5.149-5.149c1.313 0 2.507 0.495 3.416 1.304l2.427-2.427c-1.533-1.428-3.583-2.309-5.844-2.309-4.739 0-8.582 3.843-8.582 8.582s3.843 8.582 8.582 8.582c4.74 0 8.582-3.843 8.582-8.582 0-0.575-0.059-1.137-0.167-1.681z"></path>
<path style="fill: var(--color1)" d="M8.652 11.799l2.82 2.068c0.763-1.889 2.611-3.223 4.773-3.223 1.313 0 2.507 0.495 3.416 1.304l2.427-2.427c-1.533-1.428-3.583-2.309-5.844-2.309-3.296 0-6.155 1.861-7.593 4.588z"></path>
<path style="fill: var(--color1)" d="M16.244 24.376c2.217 0 4.231-0.848 5.754-2.228l-2.656-2.248c-0.89 0.678-1.979 1.044-3.098 1.043-2.232 0-4.128-1.423-4.842-3.41l-2.799 2.156c1.42 2.779 4.305 4.686 7.64 4.686z"></path>
<path style="fill: var(--color1)" d="M24.659 14.113h-0.691v-0.036h-7.724v3.433h4.85c-0.338 0.951-0.948 1.782-1.754 2.391l0.001-0.001 2.656 2.248c-0.188 0.171 2.828-2.063 2.828-6.354 0-0.575-0.059-1.137-0.167-1.681z"></path>
</symbol>
</defs>
</svg>
